<svg version="1.1" id="Layer_1" xmlns="http://www.w3.org/2000/svg" xmlns:xlink="http://www.w3.org/1999/xlink" x="0px" y="0px"
	 width="100%" viewBox="0 0 1000 750" enable-background="new 0 0 1000 750" xml:space="preserve">
<path fill="#416598" opacity="1.000000" stroke="none" 
	d="
M729.000000,751.000000 
	C486.000000,751.000000 243.500000,751.000000 1.000000,751.000000 
	C1.000000,501.000000 1.000000,251.000000 1.000000,1.000000 
	C334.333344,1.000000 667.666687,1.000000 1001.000000,1.000000 
	C1001.000000,251.000000 1001.000000,501.000000 1001.000000,751.000000 
	C910.500000,751.000000 820.000000,751.000000 729.000000,751.000000 
M394.970917,519.728821 
	C400.656952,519.682556 406.343018,519.636353 412.957092,519.692993 
	C419.318512,519.662292 425.679901,519.631592 432.968231,519.701904 
	C439.323578,519.663086 445.678925,519.624207 452.959290,519.693176 
	C456.767792,519.734619 460.577881,519.721985 464.384308,519.833740 
	C467.744537,519.932312 469.134521,518.416382 469.103149,515.049805 
	C469.009003,504.947021 469.012909,494.842346 469.100098,484.739471 
	C469.128693,481.423340 467.891418,479.833466 464.434845,479.979645 
	C460.300812,480.154480 456.157379,480.108124 451.082764,480.066681 
	C444.727600,480.094299 438.372437,480.121918 431.081665,480.063629 
	C424.724243,480.093262 418.366821,480.122864 411.074493,480.073761 
	C405.392792,480.101715 399.711090,480.129700 393.091736,480.082245 
	C387.067017,480.102325 381.042297,480.122437 374.080200,480.075928 
	C367.056366,480.096832 360.032562,480.117737 352.071716,480.072083 
	C345.049713,480.093628 338.027740,480.115173 330.069153,480.071808 
	C323.709869,480.094421 317.350616,480.117035 310.056854,480.083069 
	C303.411316,479.995422 296.765747,479.907745 290.108978,478.905396 
	C290.094238,450.311646 290.079468,421.717865 290.987915,393.040527 
	C297.653687,392.912628 304.319427,392.784729 311.920624,392.764832 
	C318.619476,392.729218 325.318298,392.693604 332.948822,392.741547 
	C339.969482,392.710815 346.990173,392.680115 354.942719,392.751984 
	C361.971527,392.712006 369.000305,392.672028 376.957703,392.735077 
	C383.989288,392.698547 391.020844,392.662018 398.979309,392.711945 
	C406.340942,392.673737 413.702545,392.635559 421.989075,392.689301 
	C428.980713,392.744659 435.973236,392.750153 442.963623,392.876343 
	C446.456177,392.939423 448.172852,391.585144 448.133972,387.888794 
	C448.028992,377.900238 448.030884,367.909210 448.131836,357.920593 
	C448.168854,354.255951 446.557892,352.879517 442.998596,352.960388 
	C435.676483,353.126831 428.350006,353.100250 420.087250,353.067383 
	C412.731720,353.093475 405.376160,353.119568 397.082306,353.067688 
	C390.059662,353.091949 383.037018,353.116241 375.077393,353.074310 
	C368.053040,353.095459 361.028717,353.116608 353.068298,353.077332 
	C346.046356,353.097168 339.024384,353.116974 331.066376,353.072021 
	C324.374695,353.094574 317.683014,353.117126 310.056854,353.083099 
	C303.411316,352.995422 296.765747,352.907745 290.109039,351.905396 
	C290.098297,327.517456 290.063019,303.129456 290.117065,278.741669 
	C290.122131,276.462219 290.691559,274.183990 291.934906,271.957733 
	C300.956116,271.925751 309.977356,271.893768 319.934265,271.927307 
	C328.291382,271.906067 336.648529,271.884827 345.940460,271.925598 
	C353.964966,271.903320 361.989441,271.881073 370.946991,271.920898 
	C377.301514,271.898132 383.656067,271.875366 390.943024,271.920044 
	C396.633240,271.897125 402.323456,271.874237 408.946777,271.916870 
	C415.307709,271.890656 421.668671,271.864410 428.960602,271.905792 
	C435.315399,271.879761 441.670227,271.853699 448.954773,271.907135 
	C453.438416,271.931702 457.923340,271.899323 462.405243,272.001129 
	C465.326233,272.067474 466.723358,270.739807 466.724060,267.856689 
	C466.726624,257.394196 466.721649,246.931671 466.739014,236.469193 
	C466.744385,233.237289 464.969360,232.092804 461.976562,232.171982 
	C457.330902,232.294876 452.683563,232.354385 447.103394,232.313751 
	C440.759521,232.346146 434.415649,232.378540 427.129730,232.282837 
	C420.769196,232.318253 414.408661,232.353668 407.109161,232.265427 
	C401.412933,232.305222 395.716736,232.345016 389.086121,232.282730 
	C382.733643,232.310013 376.381195,232.337280 369.092010,232.270859 
	C361.065826,232.295532 353.039642,232.320190 344.077942,232.259537 
	C335.717377,232.289932 327.356781,232.320343 318.062866,232.265335 
	C309.032288,232.292145 300.001709,232.318954 290.040588,232.266205 
	C281.686951,232.299225 273.333313,232.332245 264.048523,232.266266 
	C260.553497,232.214920 257.058533,232.126923 253.563400,232.119263 
	C243.844360,232.097946 243.835098,232.111115 243.834839,241.617493 
	C243.832428,331.184906 243.833221,420.752289 243.834854,510.319702 
	C243.834869,511.817932 243.919632,513.318848 243.855576,514.813843 
	C243.700256,518.438721 245.488907,519.955994 249.006195,519.872559 
	C254.329514,519.746094 259.654968,519.709534 265.914154,519.738708 
	C273.599609,519.708435 281.285034,519.678162 289.908020,519.759277 
	C296.933746,519.725098 303.959473,519.690918 311.920349,519.764832 
	C318.286713,519.729004 324.653046,519.693176 331.950806,519.740479 
	C338.975952,519.711304 346.001068,519.682068 353.956848,519.734314 
	C360.981689,519.700317 368.006561,519.666321 375.959076,519.734497 
	C381.988586,519.693726 388.018097,519.652954 394.970917,519.728821 
M590.901550,519.710327 
	C597.256897,519.681213 603.612305,519.652100 610.903931,519.725525 
	C617.928406,519.696411 624.952820,519.667297 632.913208,519.732788 
	C640.943115,519.709229 648.973083,519.685669 657.936646,519.744568 
	C666.628723,519.447327 675.320740,519.150024 684.855225,518.877869 
	C691.237671,517.601135 697.620056,516.324402 704.751465,514.922485 
	C711.847168,511.841064 718.942871,508.759674 726.609558,505.392303 
	C742.452148,495.597015 752.679382,481.670868 755.989136,463.334503 
	C757.541931,454.732178 758.172668,445.809021 757.931702,437.066803 
	C757.258362,412.639526 747.094971,393.191803 725.465088,379.603577 
	C718.335693,376.313141 711.206238,373.022736 704.215820,369.796448 
	C711.550354,365.137299 718.767334,360.552826 726.550659,355.618927 
	C732.101318,348.629333 738.897461,342.294739 742.979431,334.532776 
	C757.859741,306.237366 750.907166,273.542999 725.720764,250.213455 
	C718.723755,244.403610 711.109802,239.781204 701.515564,237.457001 
	C692.684570,235.795074 683.853577,234.133148 674.087769,232.325317 
	C666.055054,232.329788 658.022400,232.334259 649.057800,232.237091 
	C641.689697,232.280563 634.321533,232.324036 626.025574,232.282623 
	C617.662109,232.311279 609.298706,232.339920 600.009583,232.285660 
	C590.986023,232.323608 581.962463,232.361542 572.013855,232.306534 
	C565.332947,232.338715 558.652100,232.370911 551.053284,232.295212 
	C547.023682,232.338364 542.994141,232.381531 538.041992,232.314178 
	C536.543945,232.263763 535.046326,232.185532 533.547852,232.167358 
	C523.100586,232.040695 523.098022,232.044693 523.097961,242.292709 
	C523.097229,325.083893 523.092712,407.875092 523.103882,490.666260 
	C523.105164,500.160339 523.194824,509.654419 523.362854,519.418823 
	C523.481628,519.588013 523.641846,519.695862 524.793945,519.792236 
	C529.517578,519.719910 534.241150,519.647644 539.889526,519.701904 
	C543.916687,519.666870 547.943787,519.631836 552.904297,519.715210 
	C558.920715,519.673096 564.937073,519.630920 571.892151,519.714844 
	C577.916809,519.677307 583.941467,519.639771 590.901550,519.710327 
M840.951538,440.222351 
	C840.718323,441.020172 840.478821,441.816193 840.252869,442.616058 
	C790.284668,619.495850 571.997192,682.362549 436.157776,558.776123 
	C428.780609,552.064392 421.515137,554.298279 413.053741,553.884766 
	C472.149048,620.016296 578.481506,657.599121 683.624817,623.189209 
	C789.029236,588.693787 868.523743,485.845551 861.984802,361.647247 
	C855.994629,247.872208 775.785400,151.196487 665.675964,123.596024 
	C563.597778,98.008682 465.673096,138.199677 413.233887,198.182022 
	C421.996826,197.900330 429.464844,199.406128 437.092224,192.467041 
	C479.776398,153.634689 530.400085,132.461212 587.962280,129.264236 
	C651.480835,125.736450 709.286621,143.155304 757.795471,184.389847 
	C837.241577,251.922318 864.284241,337.768768 840.951538,440.222351 
z"/>
<path fill="#061124" opacity="1.000000" stroke="none" 
	d="
M841.037170,439.823578 
	C864.284241,337.768768 837.241577,251.922318 757.795471,184.389847 
	C709.286621,143.155304 651.480835,125.736450 587.962280,129.264236 
	C530.400085,132.461212 479.776398,153.634689 437.092224,192.467041 
	C429.464844,199.406128 421.996826,197.900330 413.233887,198.182022 
	C465.673096,138.199677 563.597778,98.008682 665.675964,123.596024 
	C775.785400,151.196487 855.994629,247.872208 861.984802,361.647247 
	C868.523743,485.845551 789.029236,588.693787 683.624817,623.189209 
	C578.481506,657.599121 472.149048,620.016296 413.053741,553.884766 
	C421.515137,554.298279 428.780609,552.064392 436.157776,558.776123 
	C571.997192,682.362549 790.284668,619.495850 840.252869,442.616058 
	C840.478821,441.816193 840.718323,441.020172 841.037170,439.823578 
z"/>
<path fill="#565859" opacity="1.000000" stroke="none" 
	d="
M290.998932,271.905212 
	C290.691559,274.183990 290.122131,276.462219 290.117065,278.741669 
	C290.063019,303.129456 290.098297,327.517456 289.975922,352.772339 
	C289.916779,366.800873 289.990753,379.962494 290.064697,393.124115 
	C290.079468,421.717865 290.094238,450.311646 289.975891,479.772339 
	C289.565643,482.755402 289.066833,484.869659 289.048553,486.988068 
	C288.954590,497.874084 288.984100,508.761169 288.970459,519.647888 
	C281.285034,519.678162 273.599609,519.708435 265.449280,519.248657 
	C264.982819,423.294128 264.981232,327.829681 264.979675,232.365265 
	C273.333313,232.332245 281.686951,232.299225 290.511169,232.744049 
	C290.987518,246.116333 290.993225,259.010773 290.998932,271.905212 
z"/>
<path fill="#4E5052" opacity="1.000000" stroke="none" 
	d="
M264.514099,232.315765 
	C264.981232,327.829681 264.982819,423.294128 264.981934,519.196655 
	C259.654968,519.709534 254.329514,519.746094 249.006195,519.872559 
	C245.488907,519.955994 243.700256,518.438721 243.855576,514.813843 
	C243.919632,513.318848 243.834869,511.817932 243.834854,510.319702 
	C243.833221,420.752289 243.832428,331.184906 243.834839,241.617493 
	C243.835098,232.111115 243.844360,232.097946 253.563400,232.119263 
	C257.058533,232.126923 260.553497,232.214920 264.514099,232.315765 
z"/>
<path fill="#58595B" opacity="1.000000" stroke="none" 
	d="
M725.984314,355.968323 
	C718.767334,360.552826 711.550354,365.137299 704.215820,369.796448 
	C711.206238,373.022736 718.335693,376.313141 725.729858,380.287964 
	C726.009277,422.540985 726.023926,464.109589 726.038574,505.678223 
	C718.942871,508.759674 711.847168,511.841064 704.377197,514.512146 
	C704.002686,506.296875 704.138184,498.488983 703.965454,490.687866 
	C703.782166,482.411072 703.306274,474.140747 703.105103,465.561584 
	C715.112793,444.364136 713.386841,420.557831 698.991760,402.865479 
	C699.819275,399.671021 700.891479,396.809265 700.916687,393.938293 
	C701.073547,376.044952 701.057068,358.149170 700.935242,340.255310 
	C700.915344,337.331451 700.087646,334.413086 699.636841,331.105347 
	C703.998474,318.212006 703.929932,305.668335 700.083679,292.690277 
	C700.472961,289.667206 700.945801,287.046967 700.962036,284.423920 
	C701.041870,271.523438 700.943237,258.621735 701.049805,245.721603 
	C701.071289,243.118454 701.708008,240.520416 702.061096,237.920013 
	C711.109802,239.781204 718.723755,244.403610 725.790649,250.885895 
	C725.574524,254.185608 725.045166,256.812347 725.039795,259.440155 
	C724.980530,288.489594 724.972778,317.539215 725.045654,346.588562 
	C725.053467,349.715942 725.657104,352.841766 725.984314,355.968323 
z"/>
<path fill="#898A8C" opacity="1.000000" stroke="none" 
	d="
M551.971191,232.403091 
	C558.652100,232.370911 565.332947,232.338715 572.486938,232.789307 
	C572.966919,246.132156 572.973755,258.992218 572.603271,271.970581 
	C571.431580,274.066345 569.960083,276.039062 569.946228,278.021942 
	C569.785645,301.063568 569.816833,324.106842 569.897827,347.149323 
	C569.904541,349.064880 570.641846,350.977844 571.033203,353.369263 
	C571.016968,366.563812 571.007263,379.281097 570.780762,392.356262 
	C570.324036,394.343475 569.877747,395.972382 569.874878,397.602112 
	C569.830688,423.201141 569.819214,448.800323 569.892273,474.399231 
	C569.897766,476.319855 570.600342,478.238464 570.981812,480.616760 
	C570.974365,493.913269 570.963928,506.751038 570.953491,519.588745 
	C564.937073,519.630920 558.920715,519.673096 552.441895,519.218140 
	C551.976685,423.281738 551.973938,327.842407 551.971191,232.403091 
z"/>
<path fill="#929395" opacity="1.000000" stroke="none" 
	d="
M538.964783,519.575378 
	C534.241150,519.647644 529.517578,519.719910 524.223877,519.664429 
	C523.522522,519.401489 523.385742,519.272095 523.243530,519.148499 
	C523.194824,509.654419 523.105164,500.160339 523.103882,490.666260 
	C523.092712,407.875092 523.097229,325.083893 523.097961,242.292709 
	C523.098022,232.044693 523.100586,232.040695 533.547852,232.167358 
	C535.046326,232.185532 536.543945,232.263763 538.508789,232.806534 
	C538.971985,328.724396 538.968384,424.149872 538.964783,519.575378 
z"/>
<path fill="#8F9091" opacity="1.000000" stroke="none" 
	d="
M539.427124,519.638672 
	C538.968384,424.149872 538.971985,328.724396 538.970093,232.861786 
	C542.994141,232.381531 547.023682,232.338364 551.512207,232.349152 
	C551.973938,327.842407 551.976685,423.281738 551.975220,519.158936 
	C547.943787,519.631836 543.916687,519.666870 539.427124,519.638672 
z"/>
<path fill="#4F5153" opacity="1.000000" stroke="none" 
	d="
M726.324036,505.535278 
	C726.023926,464.109589 726.009277,422.540985 725.992737,380.507111 
	C747.094971,393.191803 757.258362,412.639526 757.931702,437.066803 
	C758.172668,445.809021 757.541931,454.732178 755.989136,463.334503 
	C752.679382,481.670868 742.452148,495.597015 726.324036,505.535278 
z"/>
<path fill="#505254" opacity="1.000000" stroke="none" 
	d="
M726.267456,355.793640 
	C725.657104,352.841766 725.053467,349.715942 725.045654,346.588562 
	C724.972778,317.539215 724.980530,288.489594 725.039795,259.440155 
	C725.045166,256.812347 725.574524,254.185608 725.999146,251.138947 
	C750.907166,273.542999 757.859741,306.237366 742.979431,334.532776 
	C738.897461,342.294739 732.101318,348.629333 726.267456,355.793640 
z"/>
<path fill="#606163" opacity="1.000000" stroke="none" 
	d="
M701.788330,237.688507 
	C701.708008,240.520416 701.071289,243.118454 701.049805,245.721603 
	C700.943237,258.621735 701.041870,271.523438 700.962036,284.423920 
	C700.945801,287.046967 700.472961,289.667206 699.879333,292.414307 
	C694.447693,282.155273 685.777649,276.269775 674.990967,272.582367 
	C675.002808,258.897278 675.012695,245.684250 675.022583,232.471222 
	C683.853577,234.133148 692.684570,235.795074 701.788330,237.688507 
z"/>
<path fill="#606163" opacity="1.000000" stroke="none" 
	d="
M291.466919,271.931458 
	C290.993225,259.010773 290.987518,246.116333 290.976440,232.783813 
	C300.001709,232.318954 309.032288,232.292145 318.530457,232.744659 
	C318.998199,246.103241 318.998383,258.982513 318.998566,271.861786 
	C309.977356,271.893768 300.956116,271.925751 291.466919,271.931458 
z"/>
<path fill="#808284" opacity="1.000000" stroke="none" 
	d="
M572.980652,271.852264 
	C572.973755,258.992218 572.966919,246.132156 572.949463,232.835785 
	C581.962463,232.361542 590.986023,232.323608 600.483765,232.764221 
	C600.964050,246.112610 600.970032,258.982422 600.510254,271.883667 
	C591.023193,271.894135 582.001953,271.873199 572.980652,271.852264 
z"/>
<path fill="#646668" opacity="1.000000" stroke="none" 
	d="
M684.012817,518.852783 
	C675.320740,519.150024 666.628723,519.447327 657.470215,519.265625 
	C657.004883,505.902924 657.006042,493.019257 657.473267,480.104370 
	C666.624390,479.370789 675.309448,478.668365 683.995911,478.436768 
	C684.002502,492.222626 684.007690,505.537689 684.012817,518.852783 
z"/>
<path fill="#898A8C" opacity="1.000000" stroke="none" 
	d="
M421.025330,353.153107 
	C428.350006,353.100250 435.676483,353.126831 442.998596,352.960388 
	C446.557892,352.879517 448.168854,354.255951 448.131836,357.920593 
	C448.030884,367.909210 448.028992,377.900238 448.133972,387.888794 
	C448.172852,391.585144 446.456177,392.939423 442.963623,392.876343 
	C435.973236,392.750153 428.980713,392.744659 421.516022,392.207306 
	C421.037079,378.867920 421.031189,366.010498 421.025330,353.153107 
z"/>
<path fill="#78797B" opacity="1.000000" stroke="none" 
	d="
M600.976013,271.852264 
	C600.970032,258.982422 600.964050,246.112610 600.946655,232.805664 
	C609.298706,232.339920 617.662109,232.311279 626.498047,232.760788 
	C626.974792,246.111954 626.979126,258.984955 626.516968,271.888611 
	C617.692261,271.896881 609.334167,271.874573 600.976013,271.852264 
z"/>
<path fill="#68696B" opacity="1.000000" stroke="none" 
	d="
M319.466431,271.894531 
	C318.998383,258.982513 318.998199,246.103241 318.997131,232.787354 
	C327.356781,232.320343 335.717377,232.289932 344.543335,232.739349 
	C345.007721,246.100632 345.006683,258.982086 345.005646,271.863556 
	C336.648529,271.884827 328.291382,271.906067 319.466431,271.894531 
z"/>
<path fill="#68696B" opacity="1.000000" stroke="none" 
	d="
M674.555176,232.398270 
	C675.012695,245.684250 675.002808,258.897278 674.555847,272.567993 
	C666.078308,272.638824 658.037842,272.251923 649.998291,271.404785 
	C649.995972,258.075989 649.992798,245.207352 649.989685,232.338730 
	C658.022400,232.334259 666.055054,232.329788 674.555176,232.398270 
z"/>
<path fill="#707273" opacity="1.000000" stroke="none" 
	d="
M345.473053,271.894592 
	C345.006683,258.982086 345.007721,246.100632 345.011108,232.782013 
	C353.039642,232.320190 361.065826,232.295532 369.555664,232.753754 
	C370.017548,246.110718 370.015747,258.984772 370.013947,271.858826 
	C361.989441,271.881073 353.964966,271.903320 345.473053,271.894592 
z"/>
<path fill="#6E7071" opacity="1.000000" stroke="none" 
	d="
M657.007202,480.135559 
	C657.006042,493.019257 657.004883,505.902924 657.003357,519.224365 
	C648.973083,519.685669 640.943115,519.709229 632.449097,519.249451 
	C631.987000,505.890381 631.988953,493.014618 632.459473,480.104584 
	C640.954407,480.092041 648.980774,480.113800 657.007202,480.135559 
z"/>
<path fill="#808284" opacity="1.000000" stroke="none" 
	d="
M420.556274,353.110229 
	C421.031189,366.010498 421.037079,378.867920 421.053589,392.161346 
	C413.702545,392.635559 406.340942,392.673737 398.506531,392.231995 
	C398.029358,378.883240 398.024994,366.014435 398.020630,353.145660 
	C405.376160,353.119568 412.731720,353.093475 420.556274,353.110229 
z"/>
<path fill="#707273" opacity="1.000000" stroke="none" 
	d="
M649.523743,232.287903 
	C649.992798,245.207352 649.995972,258.075989 649.530518,271.435791 
	C641.702393,271.903992 634.342896,271.880981 626.983398,271.857971 
	C626.979126,258.984955 626.974792,246.111954 626.961914,232.803238 
	C634.321533,232.324036 641.689697,232.280563 649.523743,232.287903 
z"/>
<path fill="#5D5F61" opacity="1.000000" stroke="none" 
	d="
M684.434082,518.865356 
	C684.007690,505.537689 684.002502,492.222626 684.302368,478.265015 
	C690.724304,473.704224 696.841248,469.785919 702.958191,465.867615 
	C703.306274,474.140747 703.782166,482.411072 703.965454,490.687866 
	C704.138184,498.488983 704.002686,506.296875 704.002686,514.574707 
	C697.620056,516.324402 691.237671,517.601135 684.434082,518.865356 
z"/>
<path fill="#757779" opacity="1.000000" stroke="none" 
	d="
M631.990906,480.138885 
	C631.988953,493.014618 631.987000,505.890381 631.981140,519.202148 
	C624.952820,519.667297 617.928406,519.696411 610.440918,519.238403 
	C609.979980,505.883179 609.982117,493.015106 610.453003,480.109314 
	C617.944824,480.093994 624.967896,480.116425 631.990906,480.138885 
z"/>
<path fill="#727475" opacity="1.000000" stroke="none" 
	d="
M375.031433,519.632263 
	C368.006561,519.666321 360.981689,519.700317 353.486359,519.256470 
	C353.013489,505.898682 353.011108,493.018646 353.008728,480.138641 
	C360.032562,480.117737 367.056366,480.096832 374.545959,480.565796 
	C375.018311,493.914551 375.024872,506.773407 375.031433,519.632263 
z"/>
<path fill="#6B6D6F" opacity="1.000000" stroke="none" 
	d="
M354.010834,392.649414 
	C346.990173,392.680115 339.969482,392.710815 332.479156,392.262390 
	C332.007141,378.901093 332.004791,366.018921 332.002441,353.136780 
	C339.024384,353.116974 346.046356,353.097168 353.535339,353.564209 
	C354.005188,366.917206 354.008026,379.783295 354.010834,392.649414 
z"/>
<path fill="#727475" opacity="1.000000" stroke="none" 
	d="
M354.476776,392.700684 
	C354.008026,379.783295 354.005188,366.917206 354.003357,353.594421 
	C361.028717,353.116608 368.053040,353.095459 375.543213,353.564148 
	C376.015747,366.913361 376.022430,379.772705 376.029114,392.632050 
	C369.000305,392.672028 361.971527,392.712006 354.476776,392.700684 
z"/>
<path fill="#797B7D" opacity="1.000000" stroke="none" 
	d="
M376.493408,392.683563 
	C376.022430,379.772705 376.015747,366.913361 376.011719,353.597290 
	C383.037018,353.116241 390.059662,353.091949 397.551453,353.106689 
	C398.024994,366.014435 398.029358,378.883240 398.043091,392.188751 
	C391.020844,392.662018 383.989288,392.698547 376.493408,392.683563 
z"/>
<path fill="#6B6D6F" opacity="1.000000" stroke="none" 
	d="
M352.540222,480.105347 
	C353.011108,493.018646 353.013489,505.898682 353.021057,519.215820 
	C346.001068,519.682068 338.975952,519.711304 331.481171,519.261597 
	C331.009583,505.900696 331.007660,493.018707 331.005737,480.136688 
	C338.027740,480.115173 345.049713,480.093628 352.540222,480.105347 
z"/>
<path fill="#5D5F61" opacity="1.000000" stroke="none" 
	d="
M289.439240,519.703613 
	C288.984100,508.761169 288.954590,497.874084 289.048553,486.988068 
	C289.066833,484.869659 289.565643,482.755402 289.981506,480.229675 
	C296.765747,479.907745 303.411316,479.995422 310.525696,480.567902 
	C310.991425,493.920746 310.988312,506.788727 310.985199,519.656738 
	C303.959473,519.690918 296.933746,519.725098 289.439240,519.703613 
z"/>
<path fill="#5D5F61" opacity="1.000000" stroke="none" 
	d="
M290.526306,393.082336 
	C289.990753,379.962494 289.916779,366.800873 289.981506,353.229675 
	C296.765747,352.907745 303.411316,352.995422 310.525696,353.567932 
	C310.991425,366.920776 310.988312,379.788788 310.985199,392.656830 
	C304.319427,392.784729 297.653687,392.912628 290.526306,393.082336 
z"/>
<path fill="#646668" opacity="1.000000" stroke="none" 
	d="
M311.452911,392.710815 
	C310.988312,379.788788 310.991425,366.920776 310.992920,353.596191 
	C317.683014,353.117126 324.374695,353.094574 331.534424,353.104401 
	C332.004791,366.018921 332.007141,378.901093 332.013306,392.220612 
	C325.318298,392.693604 318.619476,392.729218 311.452911,392.710815 
z"/>
<path fill="#646668" opacity="1.000000" stroke="none" 
	d="
M311.452759,519.710815 
	C310.988312,506.788727 310.991425,493.920746 310.992920,480.596191 
	C317.350616,480.117035 323.709869,480.094421 330.537445,480.104248 
	C331.007660,493.018707 331.009583,505.900696 331.015472,519.220032 
	C324.653046,519.693176 318.286713,519.729004 311.452759,519.710815 
z"/>
<path fill="#8C8D8E" opacity="1.000000" stroke="none" 
	d="
M428.071777,232.410919 
	C434.415649,232.378540 440.759521,232.346146 447.566437,232.812851 
	C448.027985,246.150528 448.026489,258.989105 448.025024,271.827637 
	C441.670227,271.853699 435.315399,271.879761 428.490723,271.415527 
	C428.037842,258.087158 428.054810,245.249039 428.071777,232.410919 
z"/>
<path fill="#838586" opacity="1.000000" stroke="none" 
	d="
M427.600739,232.346893 
	C428.054810,245.249039 428.037842,258.087158 428.025238,271.381714 
	C421.668671,271.864410 415.307709,271.890656 408.477478,271.427246 
	C408.021484,258.088104 408.034821,245.238602 408.048126,232.389099 
	C414.408661,232.353668 420.769196,232.318253 427.600739,232.346893 
z"/>
<path fill="#838586" opacity="1.000000" stroke="none" 
	d="
M412.009399,480.152466 
	C418.366821,480.122864 424.724243,480.093262 431.545715,480.563965 
	C432.020294,493.909821 432.030792,506.755341 432.041321,519.600830 
	C425.679901,519.631592 419.318512,519.662292 412.487915,519.206726 
	C412.015594,505.864471 412.012512,493.008484 412.009399,480.152466 
z"/>
<path fill="#8C8D8E" opacity="1.000000" stroke="none" 
	d="
M432.504761,519.651367 
	C432.030792,506.755341 432.020294,493.909821 432.013519,480.606934 
	C438.372437,480.121918 444.727600,480.094299 451.547638,480.569458 
	C452.019775,493.909943 452.027008,506.747650 452.034241,519.585388 
	C445.678925,519.624207 439.323578,519.663086 432.504761,519.651367 
z"/>
<path fill="#7D7E80" opacity="1.000000" stroke="none" 
	d="
M609.984253,480.147064 
	C609.982117,493.015106 609.979980,505.883179 609.972778,519.187134 
	C603.612305,519.652100 597.256897,519.681213 590.438721,519.220703 
	C589.978516,505.873077 589.981018,493.015076 590.451904,480.117065 
	C597.274963,480.100372 603.629578,480.123718 609.984253,480.147064 
z"/>
<path fill="#78797B" opacity="1.000000" stroke="none" 
	d="
M370.480469,271.889862 
	C370.015747,258.984772 370.017548,246.110718 370.024048,232.800598 
	C376.381195,232.337280 382.733643,232.310013 389.550140,232.769165 
	C390.012970,246.121262 390.011780,258.986938 390.010590,271.852631 
	C383.656067,271.875366 377.301514,271.898132 370.480469,271.889862 
z"/>
<path fill="#929395" opacity="1.000000" stroke="none" 
	d="
M448.489899,271.867401 
	C448.026489,258.989105 448.027985,246.150528 448.033203,232.876343 
	C452.683563,232.354385 457.330902,232.294876 461.976562,232.171982 
	C464.969360,232.092804 466.744385,233.237289 466.739014,236.469193 
	C466.721649,246.931671 466.726624,257.394196 466.724060,267.856689 
	C466.723358,270.739807 465.326233,272.067474 462.405243,272.001129 
	C457.923340,271.899323 453.438416,271.931702 448.489899,271.867401 
z"/>
<path fill="#797B7D" opacity="1.000000" stroke="none" 
	d="
M375.495239,519.683350 
	C375.024872,506.773407 375.018311,493.914551 375.014648,480.599121 
	C381.042297,480.122437 387.067017,480.102325 393.556458,480.575806 
	C394.029999,493.916962 394.038818,506.764618 394.047607,519.612244 
	C388.018097,519.652954 381.988586,519.693726 375.495239,519.683350 
z"/>
<path fill="#838586" opacity="1.000000" stroke="none" 
	d="
M589.983582,480.157074 
	C589.981018,493.015076 589.978516,505.873077 589.971069,519.166626 
	C583.941467,519.639771 577.916809,519.677307 571.422852,519.651855 
	C570.963928,506.751038 570.974365,493.913269 571.450317,480.574677 
	C577.938354,480.101593 583.960999,480.129333 589.983582,480.157074 
z"/>
<path fill="#808284" opacity="1.000000" stroke="none" 
	d="
M394.509277,519.670532 
	C394.038818,506.764618 394.029999,493.916962 394.025269,480.613525 
	C399.711090,480.129700 405.392792,480.101715 411.541931,480.113129 
	C412.012512,493.008484 412.015594,505.864471 412.023865,519.155273 
	C406.343018,519.636353 400.656952,519.682556 394.509277,519.670532 
z"/>
<path fill="#7D7E80" opacity="1.000000" stroke="none" 
	d="
M390.476807,271.886353 
	C390.011780,258.986938 390.012970,246.121262 390.017334,232.820206 
	C395.716736,232.345016 401.412933,232.305222 407.578644,232.327271 
	C408.034821,245.238602 408.021484,258.088104 408.010925,271.394470 
	C402.323456,271.874237 396.633240,271.897125 390.476807,271.886353 
z"/>
<path fill="#929395" opacity="1.000000" stroke="none" 
	d="
M452.496765,519.639282 
	C452.027008,506.747650 452.019775,493.909943 452.015259,480.614868 
	C456.157379,480.108124 460.300812,480.154480 464.434845,479.979645 
	C467.891418,479.833466 469.128693,481.423340 469.100098,484.739471 
	C469.012909,494.842346 469.009003,504.947021 469.103149,515.049805 
	C469.134521,518.416382 467.744537,519.932312 464.384308,519.833740 
	C460.577881,519.721985 456.767792,519.734619 452.496765,519.639282 
z"/>
<path fill="#808284" opacity="1.000000" stroke="none" 
	d="
M523.303223,519.283691 
	C523.385742,519.272095 523.522522,519.401489 523.748657,519.639465 
	C523.641846,519.695862 523.481628,519.588013 523.303223,519.283691 
z"/>
<path fill="#416598" opacity="1.000000" stroke="none" 
	d="
M590.451904,480.117065 
	C583.960999,480.129333 577.938354,480.101593 571.447327,480.115936 
	C570.600342,478.238464 569.897766,476.319855 569.892273,474.399231 
	C569.819214,448.800323 569.830688,423.201141 569.874878,397.602112 
	C569.877747,395.972382 570.324036,394.343475 571.247559,392.398865 
	C577.620544,392.054291 583.310059,392.025024 589.466797,392.034363 
	C596.290100,392.049713 602.646301,392.026459 609.469971,392.036682 
	C616.959167,392.048462 623.980774,392.026703 631.470093,392.033569 
	C638.958496,392.042786 645.979248,392.023315 653.464478,392.030396 
	C660.954468,392.338776 667.979858,392.620575 675.375305,393.015259 
	C684.163086,394.772064 691.921936,397.922150 698.752502,403.193909 
	C713.386841,420.557831 715.112793,444.364136 703.105103,465.561584 
	C696.841248,469.785919 690.724304,473.704224 684.300903,477.794250 
	C675.309448,478.668365 666.624390,479.370789 657.473267,480.104370 
	C648.980774,480.113800 640.954407,480.092041 632.459473,480.104584 
	C624.967896,480.116425 617.944824,480.093994 610.453003,480.109314 
	C603.629578,480.123718 597.274963,480.100372 590.451904,480.117065 
z"/>
<path fill="#416598" opacity="1.000000" stroke="none" 
	d="
M626.516907,271.888611 
	C634.342896,271.880981 641.702393,271.903992 649.529663,271.895996 
	C658.037842,272.251923 666.078308,272.638824 674.553955,273.040100 
	C685.777649,276.269775 694.447693,282.155273 699.752441,292.815826 
	C703.929932,305.668335 703.998474,318.212006 699.360352,331.297852 
	C692.971802,340.669586 685.157349,347.280884 674.489563,350.832184 
	C667.044922,351.560913 660.020569,352.238556 652.528442,352.894836 
	C645.042358,352.887268 638.023987,352.901062 630.537170,352.888916 
	C623.048584,352.879944 616.028442,352.896912 608.539734,352.887909 
	C601.716919,352.878906 595.362549,352.895813 588.540710,352.879089 
	C582.395386,352.860962 576.717590,352.876465 571.039795,352.891998 
	C570.641846,350.977844 569.904541,349.064880 569.897827,347.149323 
	C569.816833,324.106842 569.785645,301.063568 569.946228,278.021942 
	C569.960083,276.039062 571.431580,274.066345 572.603271,271.970581 
	C582.001953,271.873199 591.023193,271.894135 600.510254,271.883667 
	C609.334167,271.874573 617.692261,271.896881 626.516907,271.888611 
z"/>
<path fill="#606163" opacity="1.000000" stroke="none" 
	d="
M674.909790,350.781128 
	C685.157349,347.280884 692.971802,340.669586 699.356873,331.684692 
	C700.087646,334.413086 700.915344,337.331451 700.935242,340.255310 
	C701.057068,358.149170 701.073547,376.044952 700.916687,393.938293 
	C700.891479,396.809265 699.819275,399.671021 698.991760,402.865479 
	C691.921936,397.922150 684.163086,394.772064 675.374695,392.555420 
	C674.972656,378.248871 674.941223,364.514984 674.909790,350.781128 
z"/>
<path fill="#838586" opacity="1.000000" stroke="none" 
	d="
M571.033203,353.369263 
	C576.717590,352.876465 582.395386,352.860962 588.539307,353.355988 
	C589.003479,366.576263 589.001526,379.286011 588.999573,391.995758 
	C583.310059,392.025024 577.620544,392.054291 571.464233,392.040955 
	C571.007263,379.281097 571.016968,366.563812 571.033203,353.369263 
z"/>
<path fill="#68696B" opacity="1.000000" stroke="none" 
	d="
M674.489563,350.832184 
	C674.941223,364.514984 674.972656,378.248871 675.004700,392.442566 
	C667.979858,392.620575 660.954468,392.338776 653.464783,391.561371 
	C652.999084,378.349274 652.997620,365.632751 652.996155,352.916229 
	C660.020569,352.238556 667.044922,351.560913 674.489563,350.832184 
z"/>
<path fill="#757779" opacity="1.000000" stroke="none" 
	d="
M609.008240,352.913849 
	C616.028442,352.896912 623.048584,352.879944 630.536743,353.366028 
	C631.003906,366.581055 631.003174,379.292999 631.002441,392.004944 
	C623.980774,392.026703 616.959167,392.048462 609.469971,391.567749 
	C609.004395,378.348145 609.006348,365.631012 609.008240,352.913849 
z"/>
<path fill="#6E7071" opacity="1.000000" stroke="none" 
	d="
M631.470093,392.033569 
	C631.003174,379.292999 631.003906,366.581055 631.005127,353.391968 
	C638.023987,352.901062 645.042358,352.887268 652.528442,352.894836 
	C652.997620,365.632751 652.999084,378.349274 653.000244,391.534851 
	C645.979248,392.023315 638.958496,392.042786 631.470093,392.033569 
z"/>
<path fill="#7D7E80" opacity="1.000000" stroke="none" 
	d="
M608.539734,352.887909 
	C609.006348,365.631012 609.004395,378.348145 609.002441,391.534241 
	C602.646301,392.026459 596.290100,392.049713 589.466797,392.034363 
	C589.001526,379.286011 589.003479,366.576263 589.006836,353.389618 
	C595.362549,352.895813 601.716919,352.878906 608.539734,352.887909 
z"/>
</svg>